# xmcd
# Copyright (C) 1995-1998 Ti Kan
#
# Track frame offsets:
#       150
#       23574
#       43356
#       64502
#
# Disc length: 1165 seconds
#
# Revision: 0
# Processed by: cddbd v1.5.2PL0 Copyright (c) Steve Scherf et al.
# Submitted via: CD-Import v1.0
#
DISCID=2c048b04
DTITLE=Tribecca - Ocean Rapture
DYEAR=10
DGENRE=
TTITLE0=The Prisoner
TTITLE1=Baron Rouge
TTITLE2=Gray
TTITLE3=Burn
EXTD=
EXTT0=
EXTT1=
EXTT2=
EXTT3=
PLAYORDER=
